<?xml version="1.0" standalone="no"?>
<!DOCTYPE svg PUBLIC "-//W3C//DTD SVG 20010904//EN"
 "http://www.w3.org/TR/2001/REC-SVG-20010904/DTD/svg10.dtd">
<svg version="1.0" xmlns="http://www.w3.org/2000/svg"
 width="3268.000000pt" height="1020.000000pt" viewBox="0 0 3268.000000 1020.000000"
 preserveAspectRatio="xMidYMid meet">

<g transform="translate(0.000000,1020.000000) scale(0.100000,-0.100000)"
fill="#000000" stroke="none">
<path d="M10955 10190 c-320 -34 -598 -247 -709 -541 -53 -142 -56 -183 -56
-809 0 -317 4 -599 9 -626 25 -133 97 -249 202 -328 71 -53 140 -81 272 -107
356 -71 634 -315 746 -654 161 -485 -93 -1021 -570 -1205 -43 -16 -129 -41
-191 -54 -133 -28 -184 -49 -258 -105 -102 -76 -177 -197 -201 -325 -13 -69
-12 -1184 2 -1266 29 -181 103 -324 239 -461 126 -127 238 -190 416 -236 65
-17 348 -18 5484 -18 5136 0 5419 1 5484 18 166 42 284 106 398 215 137 131
218 280 253 464 14 75 15 167 13 695 -3 603 -4 608 -26 668 -44 117 -128 218
-234 282 -49 30 -89 42 -280 86 -263 61 -508 258 -635 512 -197 391 -95 885
242 1168 136 114 273 180 451 216 133 26 202 53 273 107 105 79 177 195 202
328 5 27 9 309 9 626 0 626 -3 667 -56 809 -75 198 -237 372 -435 465 -91 43
-167 64 -284 76 -107 11 -10652 11 -10760 0z m1930 -633 c-216 -159 -459 -386
-620 -580 -248 -299 -457 -660 -576 -997 -12 -36 -24 -67 -25 -68 -1 -2 -47
35 -101 83 -209 185 -418 298 -676 365 l-88 23 3 511 3 511 23 44 c29 54 65
88 117 112 38 18 89 19 1005 18 l965 0 -30 -22z m2215 13 c469 -43 886 -190
1290 -458 145 -95 230 -179 253 -246 39 -114 11 -252 -66 -327 -28 -27 -782
-484 -2187 -1325 l-2145 -1283 -18 52 c-31 92 -77 285 -99 420 -30 184 -33
630 -4 812 24 158 75 362 126 510 51 148 186 426 274 563 471 739 1261 1219
2116 1285 104 8 353 6 460 -3z m3134 -19 c712 -113 1327 -476 1767 -1041 99
-128 164 -229 153 -239 -5 -5 -974 -586 -2154 -1291 -1180 -706 -2172 -1301
-2205 -1323 -77 -52 -180 -155 -232 -232 -108 -160 -153 -299 -160 -492 -8
-190 18 -309 104 -473 72 -139 154 -229 338 -368 l30 -22 -655 3 c-707 4 -711
4 -980 63 -663 146 -1286 573 -1671 1145 -33 50 -59 92 -57 94 2 1 975 584
2163 1295 1188 711 2180 1306 2205 1323 158 108 295 295 354 483 120 385 -13
784 -343 1031 -42 32 -80 61 -86 66 -6 4 278 7 640 4 611 -3 658 -5 789 -26z
m3501 10 c52 -24 88 -58 117 -112 l23 -44 3 -511 3 -511 -88 -22 c-264 -69
-529 -218 -708 -400 -33 -34 -62 -61 -66 -61 -4 0 -10 12 -14 27 -16 65 -113
290 -187 436 -236 462 -586 870 -1023 1194 l-30 22 965 0 c916 1 967 0 1005
-18z m-1275 -1938 c128 -410 150 -915 59 -1358 -84 -403 -287 -830 -555 -1165
-96 -119 -310 -332 -431 -428 -384 -304 -817 -494 -1304 -574 -115 -19 -173
-22 -409 -22 -208 0 -301 4 -383 17 -427 66 -799 208 -1137 432 -242 161 -299
240 -287 393 6 80 45 161 100 208 29 24 4271 2574 4314 2593 1 1 16 -43 33
-96z m656 -1962 c110 -106 252 -202 395 -270 95 -45 255 -100 337 -116 l32 -7
0 -471 c0 -260 -4 -498 -10 -529 -12 -79 -55 -139 -122 -172 l-52 -26 -969 0
-970 0 69 51 c210 157 462 399 618 594 229 286 428 639 541 958 15 42 30 77
33 77 2 0 46 -40 98 -89z m-9417 -24 c111 -306 299 -638 517 -912 121 -153
413 -441 562 -555 l124 -95 -958 -3 -959 -2 -52 26 c-65 31 -109 91 -123 165
-6 29 -10 253 -10 514 l0 463 53 12 c257 61 517 203 707 387 52 51 97 92 100
92 3 1 20 -41 39 -92z"/>
<path d="M10075 2361 c-22 -10 -52 -31 -67 -47 -57 -61 -58 -71 -58 -463 l0
-359 -58 58 c-43 42 -83 70 -153 103 -132 64 -209 81 -349 80 -146 -1 -262
-27 -390 -90 -80 -39 -108 -59 -185 -137 -74 -74 -99 -107 -132 -176 -157
-320 -127 -733 73 -999 145 -193 389 -304 669 -303 198 1 338 54 457 174 67
67 68 67 73 40 22 -103 108 -182 199 -182 80 0 174 70 195 145 15 54 15 1974
0 2028 -31 113 -168 177 -274 128z m-476 -1030 c83 -26 137 -60 198 -123 57
-61 83 -107 107 -187 20 -67 21 -207 2 -277 -34 -127 -123 -235 -240 -290
-345 -163 -709 97 -671 479 18 192 128 337 295 394 86 29 222 31 309 4z"/>
<path d="M16396 2359 l-26 -20 0 -1113 c0 -1220 -4 -1147 59 -1161 33 -7 85
15 95 40 3 9 6 514 6 1121 l0 1105 -25 24 c-30 31 -73 32 -109 4z"/>
<path d="M27089 2337 c-22 -15 -39 -38 -49 -65 -13 -37 -13 -47 0 -84 21 -58
58 -83 125 -83 67 0 104 25 125 83 13 37 13 47 0 84 -19 54 -67 88 -125 88
-27 0 -54 -8 -76 -23z"/>
<path d="M20893 2183 c-13 -2 -32 -16 -43 -30 -19 -24 -20 -40 -20 -239 l0
-214 -149 0 c-130 0 -152 -2 -172 -18 -15 -13 -22 -30 -22 -52 0 -22 7 -39 22
-52 20 -16 42 -18 172 -18 l148 0 3 -572 c4 -623 4 -622 64 -745 35 -73 118
-145 196 -173 97 -34 241 -38 344 -10 112 30 144 51 144 94 0 42 -28 78 -60
78 -14 0 -63 -9 -110 -22 -65 -17 -100 -21 -152 -17 -131 11 -204 65 -238 176
-19 60 -20 94 -20 627 l0 564 249 0 c236 0 250 1 275 21 33 26 35 70 4 99 -21
19 -34 20 -274 20 l-253 0 -3 221 -3 221 -28 24 c-28 24 -33 25 -74 17z"/>
<path d="M4202 2129 c-63 -12 -108 -44 -131 -93 -18 -37 -21 -61 -21 -194 l0
-152 -85 0 c-99 0 -139 -14 -178 -59 -60 -71 -56 -172 9 -237 41 -40 86 -54
181 -54 l72 0 3 -432 3 -433 27 -77 c83 -247 281 -369 573 -354 153 7 203 28
245 99 38 64 26 159 -29 221 -34 39 -72 49 -182 50 -98 1 -109 3 -147 29 -23
15 -52 46 -64 70 -23 41 -23 48 -26 435 l-3 392 148 0 c173 0 207 8 255 56 66
66 71 164 11 235 -44 52 -75 59 -248 59 l-155 0 0 138 c0 160 -9 200 -55 251
-50 55 -107 69 -203 50z"/>
<path d="M735 1739 c-358 -49 -602 -253 -700 -584 -21 -69 -28 -120 -32 -220
-6 -150 5 -237 46 -366 70 -217 231 -391 441 -475 137 -56 202 -67 395 -68
200 -1 276 12 435 75 139 55 187 115 178 224 -6 66 -43 119 -102 146 -57 26
-96 24 -178 -11 -202 -86 -413 -92 -574 -16 -39 19 -89 50 -111 70 -43 38 -96
130 -108 184 l-7 32 587 0 c646 0 636 -1 676 62 19 30 20 43 16 153 -18 433
-227 700 -609 780 -89 19 -266 26 -353 14z m317 -379 c129 -40 221 -136 243
-253 l7 -37 -437 0 -437 0 7 28 c11 46 68 132 114 173 47 42 127 84 188 98 74
17 246 13 315 -9z"/>
<path d="M5925 1730 c-115 -25 -210 -81 -274 -161 l-38 -48 -17 44 c-29 74
-114 135 -192 135 -78 0 -172 -72 -193 -147 -15 -54 -15 -1294 0 -1348 22 -79
116 -145 204 -145 64 1 151 59 178 120 8 17 14 167 17 445 5 407 6 422 28 477
42 106 136 187 252 218 62 17 203 15 274 -4 70 -18 118 -10 178 31 42 28 88
110 88 156 0 98 -61 174 -167 207 -76 25 -268 36 -338 20z"/>
<path d="M7262 1730 c-359 -51 -599 -260 -685 -598 -18 -72 -21 -115 -22 -257
0 -146 3 -182 24 -260 42 -163 107 -281 208 -381 186 -183 507 -265 768 -198
140 36 275 122 334 211 27 40 31 43 31 22 0 -108 100 -209 206 -209 65 0 147
53 175 114 18 39 19 78 19 705 0 655 0 665 -21 708 -56 116 -208 146 -306 60
-41 -36 -72 -97 -73 -141 l0 -29 -30 41 c-35 49 -116 114 -181 148 -113 57
-303 84 -447 64z m297 -371 c206 -47 351 -243 351 -476 0 -232 -122 -412 -321
-474 -73 -23 -210 -25 -285 -5 -215 57 -344 236 -344 476 0 241 126 416 341
474 63 17 195 20 258 5z"/>
<path d="M11370 1734 c-14 -2 -56 -9 -94 -15 -161 -26 -298 -93 -411 -201
-151 -143 -224 -305 -244 -544 -34 -402 125 -730 424 -874 126 -60 236 -84
390 -84 120 0 137 2 224 33 52 17 120 47 150 66 54 33 132 106 163 153 15 22
15 21 21 -29 4 -30 17 -68 31 -89 29 -45 113 -90 166 -90 46 0 130 42 156 77
44 59 44 67 44 747 0 729 3 696 -73 763 -118 104 -303 34 -325 -123 l-7 -47
-29 42 c-56 80 -188 163 -313 195 -63 16 -226 28 -273 20z m265 -379 c173 -45
291 -176 331 -365 30 -141 -1 -300 -82 -417 -46 -66 -92 -104 -180 -145 -58
-27 -81 -32 -168 -36 -169 -7 -283 35 -383 141 -89 94 -126 196 -127 347 0
152 37 253 130 350 58 61 136 106 217 126 73 17 192 17 262 -1z"/>
<path d="M13190 1726 c-166 -35 -291 -98 -378 -190 -161 -170 -158 -451 7
-613 109 -107 286 -172 546 -199 169 -17 216 -27 263 -56 65 -40 80 -120 37
-194 -20 -34 -40 -50 -92 -76 -65 -32 -72 -33 -178 -32 -130 1 -235 28 -383
99 -133 64 -201 59 -269 -18 -56 -64 -65 -146 -22 -216 45 -75 255 -176 427
-206 101 -18 351 -21 432 -5 255 49 425 175 489 362 41 119 35 268 -15 377
-86 189 -270 276 -655 311 -63 5 -139 17 -167 25 -161 48 -186 206 -45 276 44
22 60 24 208 24 154 0 162 -1 225 -29 141 -62 208 -58 273 13 58 64 60 156 5
226 -27 34 -97 69 -205 101 -78 23 -109 27 -263 30 -121 2 -195 -1 -240 -10z"/>
<path d="M15020 1719 c-358 -55 -623 -309 -696 -669 -22 -112 -15 -311 16
-420 99 -351 378 -568 752 -587 242 -12 467 57 644 198 66 52 74 64 74 110 0
67 -75 90 -132 40 -139 -120 -329 -186 -538 -185 -135 0 -211 17 -320 71 -102
51 -222 170 -269 268 -35 70 -71 189 -71 232 l0 23 709 0 710 0 28 24 c28 24
28 26 26 133 -2 138 -30 260 -86 373 -72 147 -221 278 -384 337 -140 50 -331
72 -463 52z m375 -183 c239 -82 374 -257 401 -518 l7 -68 -663 0 -663 0 7 53
c27 202 161 400 337 492 115 60 192 76 354 72 121 -3 151 -8 220 -31z"/>
<path d="M17600 1718 c-82 -11 -230 -61 -295 -98 -185 -106 -326 -290 -387
-505 -19 -69 -23 -103 -22 -240 0 -185 17 -265 84 -400 129 -260 379 -416 692
-432 241 -12 478 60 645 197 70 58 87 91 68 137 -25 60 -73 58 -154 -7 -134
-107 -308 -164 -506 -164 -139 0 -211 16 -325 72 -100 49 -211 159 -263 259
-35 67 -77 201 -77 245 0 17 27 18 709 18 l710 0 26 23 c34 29 41 84 26 209
-15 129 -34 199 -82 297 -52 106 -169 228 -272 286 -165 91 -386 131 -577 103z
m376 -182 c206 -66 349 -228 389 -440 8 -43 15 -93 15 -112 l0 -34 -661 0
-661 0 6 48 c38 270 223 483 478 552 109 30 321 23 434 -14z"/>
<path d="M23790 1711 c-320 -71 -543 -288 -622 -606 -31 -125 -31 -343 1 -460
27 -104 97 -244 160 -321 94 -116 247 -212 407 -256 108 -30 355 -32 457 -4
250 67 429 211 529 422 145 310 100 706 -108 957 -101 121 -251 216 -410 258
-115 30 -303 35 -414 10z m408 -174 c167 -59 292 -167 367 -319 56 -114 75
-200 75 -344 0 -205 -58 -353 -189 -484 -130 -129 -271 -184 -476 -184 -206 0
-345 53 -476 184 -81 81 -114 133 -155 244 -36 96 -45 304 -20 419 34 153 126
300 239 384 142 104 243 134 432 130 109 -3 142 -8 203 -30z"/>
<path d="M25793 1720 c-177 -32 -339 -132 -426 -263 l-25 -37 -4 121 c-3 113
-5 122 -27 140 -30 25 -72 24 -105 -2 l-26 -20 0 -774 c0 -743 1 -774 19 -796
27 -33 95 -33 122 0 18 22 19 47 19 470 1 340 4 465 15 526 20 113 71 210 158
302 121 127 298 196 461 179 261 -28 405 -127 484 -332 l27 -69 5 -528 5 -529
28 -24 c38 -32 72 -31 108 5 l29 29 0 489 c0 438 -2 497 -19 578 -55 266 -228
448 -490 516 -88 23 -278 33 -358 19z"/>
<path d="M31855 1719 c-169 -22 -314 -88 -399 -180 -76 -82 -100 -147 -101
-269 0 -88 3 -101 33 -162 76 -154 208 -214 632 -288 102 -18 219 -43 260 -56
172 -54 252 -148 236 -281 -16 -137 -122 -230 -308 -269 -108 -23 -348 -15
-443 16 -103 32 -193 83 -269 150 -76 68 -99 73 -145 34 -62 -52 -31 -120 93
-209 35 -24 96 -60 137 -80 312 -147 783 -106 981 87 74 72 110 157 116 273 8
151 -33 243 -143 327 -93 71 -230 112 -574 173 -261 46 -377 100 -426 198 -32
65 -33 125 -1 192 62 134 251 204 521 192 173 -8 239 -28 403 -121 49 -28 75
-24 105 17 23 29 18 66 -12 94 -62 58 -206 122 -334 149 -89 18 -273 25 -362
13z"/>
<path d="M2730 1697 c-41 -13 -95 -34 -120 -46 -58 -30 -158 -101 -189 -135
-14 -14 -27 -26 -31 -26 -4 0 -12 23 -19 52 -15 66 -49 110 -104 137 -99 48
-212 7 -258 -94 -17 -38 -19 -80 -19 -705 0 -624 2 -668 19 -705 32 -72 104
-115 191 -115 70 1 155 59 179 123 7 18 11 155 11 375 0 191 5 379 10 417 21
146 116 276 247 338 62 29 76 32 168 32 74 0 112 -5 144 -18 102 -42 167 -111
213 -226 22 -54 23 -71 28 -482 l5 -426 27 -40 c42 -64 90 -88 173 -88 83 0
131 24 173 88 l27 41 0 430 c0 467 -3 503 -56 649 -38 104 -89 186 -163 260
-74 73 -147 119 -248 154 -61 22 -94 27 -203 30 -113 3 -140 0 -205 -20z"/>
<path d="M19540 1705 c-264 -42 -486 -198 -595 -419 -70 -141 -88 -223 -89
-401 -1 -127 3 -163 22 -235 93 -343 364 -566 731 -600 216 -20 461 51 611
178 27 23 34 36 34 66 0 45 -31 79 -71 79 -17 0 -53 -17 -90 -41 -72 -50 -167
-94 -243 -113 -77 -20 -268 -17 -350 5 -157 42 -312 153 -388 279 -128 212
-130 532 -5 747 104 178 301 292 529 307 170 11 309 -25 452 -116 44 -28 86
-51 95 -51 9 0 28 11 43 23 40 35 38 82 -7 120 -99 83 -272 156 -422 176 -97
14 -149 13 -257 -4z"/>
<path d="M22525 1711 c-188 -30 -331 -116 -415 -247 l-30 -48 0 117 c0 112 -1
119 -25 142 -32 33 -78 33 -110 0 l-25 -24 0 -758 c0 -417 3 -768 6 -781 7
-25 51 -52 84 -52 12 0 35 13 51 29 l29 29 0 489 c0 539 1 550 63 667 40 78
145 183 223 224 129 67 285 79 431 31 60 -19 77 -21 98 -11 55 25 57 95 4 134
-62 47 -266 78 -384 59z"/>
<path d="M28320 1710 c-340 -47 -593 -265 -682 -586 -18 -66 -22 -106 -22
-244 0 -152 2 -172 28 -255 103 -335 355 -537 719 -575 203 -21 407 32 578
152 67 46 83 74 68 118 -10 27 -52 60 -77 60 -5 0 -38 -20 -73 -44 -84 -56
-129 -79 -212 -105 -179 -55 -405 -29 -566 66 -233 137 -349 420 -297 723 34
202 151 369 321 457 102 52 175 72 300 80 169 10 323 -33 465 -131 60 -42 77
-44 114 -15 40 32 36 82 -11 125 -51 47 -223 131 -317 154 -94 24 -245 32
-336 20z"/>
<path d="M29977 1710 c-352 -64 -603 -306 -672 -649 -24 -115 -16 -324 15
-431 39 -135 103 -244 205 -346 104 -105 190 -160 320 -203 265 -88 554 -43
756 119 60 48 166 164 171 185 1 6 4 -55 7 -133 6 -142 6 -144 34 -168 37 -31
81 -31 112 1 l25 24 0 771 0 771 -25 24 c-37 38 -111 31 -131 -12 -4 -10 -10
-80 -13 -156 l-6 -138 -45 62 c-86 119 -228 213 -390 259 -85 24 -282 35 -363
20z m301 -165 c195 -39 359 -166 445 -345 60 -126 72 -181 71 -325 -1 -201
-54 -340 -183 -477 -61 -65 -89 -86 -165 -123 -108 -54 -198 -75 -321 -75
-121 0 -213 21 -315 71 -324 159 -453 587 -283 937 56 113 169 225 283 280
144 69 307 89 468 57z"/>
<path d="M27112 1685 l-32 -27 0 -771 c1 -591 3 -776 13 -788 33 -44 97 -47
133 -7 18 19 19 54 19 794 0 761 0 774 -20 793 -34 35 -77 37 -113 6z"/>
</g>
</svg>
