<?xml version="1.0" standalone="no"?>
<!DOCTYPE svg PUBLIC "-//W3C//DTD SVG 20010904//EN"
 "http://www.w3.org/TR/2001/REC-SVG-20010904/DTD/svg10.dtd">
<svg version="1.0" xmlns="http://www.w3.org/2000/svg"
 width="1346.000000pt" height="738.000000pt" viewBox="0 0 1346.000000 738.000000"
 preserveAspectRatio="xMidYMid meet">

<g transform="translate(0.000000,738.000000) scale(0.100000,-0.100000)"
fill="#000000" stroke="none">
<path d="M764 7355 c-225 -52 -304 -88 -438 -202 -177 -149 -260 -332 -302
-665 -22 -176 -33 -1073 -15 -1227 19 -164 61 -259 155 -356 66 -67 140 -101
344 -159 286 -80 399 -138 544 -275 109 -104 161 -172 226 -298 89 -175 127
-332 126 -528 -2 -302 -145 -582 -402 -787 -143 -113 -239 -159 -497 -232
-207 -60 -287 -99 -356 -174 -67 -73 -95 -136 -122 -270 -21 -103 -21 -134
-22 -742 0 -723 0 -729 81 -899 57 -121 113 -198 210 -291 130 -124 244 -171
539 -222 l130 -23 5860 0 c5589 0 5863 1 5930 18 88 23 239 94 319 151 132 94
266 265 320 407 58 156 59 160 63 849 4 614 4 638 -17 740 -25 129 -65 212
-135 289 -74 79 -142 112 -341 166 -209 57 -308 97 -415 167 -200 130 -349
321 -432 555 -68 188 -81 428 -33 608 94 358 398 660 764 760 50 14 134 36
185 50 127 35 190 68 257 135 65 65 109 147 142 265 23 79 23 86 23 735 0 597
-2 663 -18 740 -64 296 -244 521 -523 652 -46 21 -118 49 -161 61 l-78 22
-5905 2 -5905 2 -101 -24z m7751 -645 c157 -15 397 -55 539 -91 430 -109 798
-284 1140 -541 141 -108 400 -361 508 -498 90 -115 213 -298 205 -306 -8 -8
-4056 -2434 -4378 -2624 -357 -210 -517 -334 -648 -500 -132 -167 -205 -436
-181 -669 12 -115 31 -189 76 -300 57 -139 111 -209 284 -366 l155 -140 -560
-3 c-710 -4 -953 12 -1257 79 -319 70 -717 249 -1043 469 -296 200 -576 488
-758 781 -46 74 -55 95 -45 105 14 12 3472 2084 3788 2269 401 235 948 565
1005 607 177 132 313 329 365 533 28 106 37 304 20 427 -24 179 -82 332 -175
463 -35 49 -205 208 -300 279 -11 9 -18 16 -15 18 8 4 537 13 865 16 165 1
350 -3 410 -8z m4109 -25 c70 -25 130 -87 151 -155 21 -71 29 -438 18 -844 -7
-241 -10 -290 -23 -297 -8 -4 -60 -20 -115 -35 -264 -72 -513 -214 -729 -415
-42 -39 -78 -70 -80 -68 -1 2 -9 20 -16 39 -33 85 -197 424 -267 553 -157 290
-289 487 -458 677 -89 101 -153 158 -355 321 -58 46 -140 118 -184 159 l-78
75 838 6 c1100 7 1235 6 1298 -16z m-9684 -13 c-383 -298 -645 -566 -872 -892
-173 -250 -330 -550 -418 -800 -18 -52 -36 -98 -39 -102 -3 -4 -62 42 -131
103 -194 170 -321 248 -500 309 -52 18 -141 48 -197 67 l-103 36 0 556 c0 360
4 569 11 594 12 45 72 106 132 136 42 21 46 21 1097 21 l1055 -1 -35 -27z
m2420 18 c495 -45 932 -191 1346 -451 153 -96 253 -169 293 -215 112 -127 120
-301 18 -426 -68 -85 -296 -234 -722 -473 -114 -64 -457 -266 -763 -449 -306
-183 -1164 -697 -1907 -1141 -742 -445 -1358 -810 -1367 -813 -19 -5 -20 -3
-78 233 -43 178 -77 389 -101 635 -39 401 128 1087 371 1522 282 503 635 878
1090 1153 121 74 386 203 513 250 212 78 481 143 697 169 140 17 454 20 610 6z
m5868 -2085 c24 -62 94 -385 114 -525 21 -148 18 -653 -5 -800 -59 -381 -143
-651 -296 -945 -600 -1157 -1859 -1823 -3098 -1640 -372 56 -608 133 -1031
335 -452 218 -599 400 -523 651 19 60 31 79 80 127 96 95 313 239 553 368 262
140 392 217 2283 1353 1034 621 1885 1130 1891 1130 6 1 21 -24 32 -54z m716
-2182 c116 -112 250 -207 396 -282 119 -61 283 -122 382 -141 l57 -11 8 -47
c10 -64 10 -631 -1 -877 -7 -164 -12 -209 -28 -247 -25 -60 -93 -123 -150
-139 -34 -10 -265 -12 -1088 -10 -575 2 -1046 4 -1048 6 -1 1 21 18 50 37 164
109 481 403 639 593 295 354 545 783 656 1128 14 42 27 77 31 77 3 0 46 -39
96 -87z m-10294 -33 c39 -99 166 -383 205 -455 238 -445 633 -903 1029 -1195
l89 -65 -1038 -3 c-654 -1 -1051 2 -1074 8 -20 5 -58 23 -84 40 -107 68 -122
176 -112 810 4 217 9 402 11 411 3 10 25 21 62 29 145 32 351 116 487 200 98
60 224 160 308 244 40 40 75 70 78 67 3 -3 21 -44 39 -91z"/>
</g>
</svg>
